<?xml version="1.0" encoding="utf-8"?>
<svg width="10" height="20" viewBox="-1.8 -0.011 13.61 20.032" fill="none" xmlns="http://www.w3.org/2000/svg">
  <path d="M9.16667 0C9.6269 0 10 0.373096 10 0.833333V2.5C10 2.96024 9.6269 3.33333 9.16667 3.33333C8.70643 3.33333 8.33333 2.96024 8.33333 2.5V0.833333C8.33333 0.373096 8.70643 0 9.16667 0Z" fill="#777E91"/>
  <path d="M9.16667 10C9.6269 10 10 10.3731 10 10.8333V15.8333C10 16.2936 9.6269 16.6667 9.16667 16.6667C8.70643 16.6667 8.33333 16.2936 8.33333 15.8333V10.8333C8.33333 10.3731 8.70643 10 9.16667 10Z" fill="#777E91"/>
  <path d="M0.833333 3.33333C1.29357 3.33333 1.66667 3.70643 1.66667 4.16667V10.8333C1.66667 11.2936 1.29357 11.6667 0.833333 11.6667C0.373096 11.6667 0 11.2936 0 10.8333V4.16667C0 3.70643 0.373096 3.33333 0.833333 3.33333Z" fill="#777E91"/>
  <path d="M0.833333 15C1.29357 15 1.66667 15.3731 1.66667 15.8333V19.1667C1.66667 19.6269 1.29357 20 0.833333 20C0.373096 20 0 19.6269 0 19.1667V15.8333C0 15.3731 0.373096 15 0.833333 15Z" fill="#777E91"/>
  <path fill-rule="evenodd" clip-rule="evenodd" d="M 6.634 4.158 C 6.634 2.777 7.753 1.658 9.134 1.658 C 10.514 1.658 11.634 2.777 11.634 4.158 L 11.634 9.158 C 11.634 10.539 10.514 11.658 9.134 11.658 C 7.753 11.658 6.634 10.539 6.634 9.158 L 6.634 4.158 Z M 9.967 4.158 L 9.967 9.158 C 9.967 9.618 9.594 9.991 9.134 9.991 C 8.673 9.991 8.3 9.618 8.3 9.158 L 8.3 4.158 C 8.3 3.698 8.673 3.325 9.134 3.325 C 9.594 3.325 9.967 3.698 9.967 4.158 Z" fill="#777E91"/>
  <path fill-rule="evenodd" clip-rule="evenodd" d="M -1.7 12.491 C -1.7 11.111 -0.581 9.991 0.8 9.991 C 2.181 9.991 3.3 11.111 3.3 12.491 L 3.3 14.158 C 3.3 15.539 2.181 16.658 0.8 16.658 C -0.581 16.658 -1.7 15.539 -1.7 14.158 L -1.7 12.491 Z M 1.634 12.491 L 1.634 14.158 C 1.634 14.618 1.26 14.991 0.8 14.991 C 0.34 14.991 -0.033 14.618 -0.033 14.158 L -0.033 12.491 C -0.033 12.031 0.34 11.658 0.8 11.658 C 1.26 11.658 1.634 12.031 1.634 12.491 Z" fill="#777E91"/>
</svg>