<?xml version="1.0" encoding="utf-8"?>
<svg viewBox="0 0 9.449 7.562" fill="none" xmlns="http://www.w3.org/2000/svg">
  <path d="M 7.86 3.719 C 8.078 3.719 8.254 3.543 8.254 3.325 C 8.254 3.108 8.078 2.931 7.86 2.931 C 7.643 2.931 7.467 3.108 7.467 3.325 C 7.467 3.543 7.643 3.719 7.86 3.719 Z" fill="#FCFCFD" style=""/>
  <path d="M 7.86 5.294 C 8.078 5.294 8.254 5.118 8.254 4.901 C 8.254 4.683 8.078 4.507 7.86 4.507 C 7.643 4.507 7.467 4.683 7.467 4.901 C 7.467 5.118 7.643 5.294 7.86 5.294 Z" fill="#FCFCFD" style=""/>
  <path d="M 7.86 6.87 C 8.078 6.87 8.254 6.694 8.254 6.476 C 8.254 6.259 8.078 6.082 7.86 6.082 C 7.643 6.082 7.467 6.259 7.467 6.476 C 7.467 6.694 7.643 6.87 7.86 6.87 Z" fill="#FCFCFD" style=""/>
  <path d="M 4.709 5.294 C 4.927 5.294 5.103 5.118 5.103 4.901 C 5.103 4.683 4.927 4.507 4.709 4.507 C 4.492 4.507 4.316 4.683 4.316 4.901 C 4.316 5.118 4.492 5.294 4.709 5.294 Z" fill="#FCFCFD" style=""/>
  <path d="M 4.709 6.87 C 4.927 6.87 5.103 6.694 5.103 6.476 C 5.103 6.259 4.927 6.082 4.709 6.082 C 4.492 6.082 4.316 6.259 4.316 6.476 C 4.316 6.694 4.492 6.87 4.709 6.87 Z" fill="#FCFCFD" style=""/>
  <path d="M 1.558 6.87 C 1.776 6.87 1.952 6.694 1.952 6.476 C 1.952 6.259 1.776 6.082 1.558 6.082 C 1.341 6.082 1.165 6.259 1.165 6.476 C 1.165 6.694 1.341 6.87 1.558 6.87 Z" fill="#FCFCFD" style=""/>
  <path fill-rule="evenodd" clip-rule="evenodd" d="M 7.853 2.695 C 7.201 2.695 6.672 2.166 6.672 1.514 C 6.672 0.861 7.201 0.332 7.853 0.332 C 8.506 0.332 9.035 0.861 9.035 1.514 C 9.035 2.166 8.506 2.695 7.853 2.695 Z M 7.853 1.908 C 7.636 1.908 7.46 1.732 7.46 1.514 C 7.46 1.296 7.636 1.12 7.853 1.12 C 8.071 1.12 8.247 1.296 8.247 1.514 C 8.247 1.732 8.071 1.908 7.853 1.908 Z" fill="#FCFCFD" style=""/>
  <path fill-rule="evenodd" clip-rule="evenodd" d="M 4.702 4.271 C 4.05 4.271 3.521 3.742 3.521 3.089 C 3.521 2.437 4.05 1.908 4.702 1.908 C 5.355 1.908 5.884 2.437 5.884 3.089 C 5.884 3.742 5.355 4.271 4.702 4.271 Z M 4.702 3.483 C 4.485 3.483 4.308 3.307 4.308 3.089 C 4.308 2.872 4.485 2.695 4.702 2.695 C 4.92 2.695 5.097 2.872 5.097 3.089 C 5.097 3.307 4.92 3.483 4.702 3.483 Z" fill="#FCFCFD" style=""/>
  <path fill-rule="evenodd" clip-rule="evenodd" d="M 0.37 4.665 C 0.37 5.317 0.899 5.847 1.552 5.847 C 2.204 5.847 2.733 5.317 2.733 4.665 C 2.733 4.012 2.204 3.483 1.552 3.483 C 0.899 3.483 0.37 4.012 0.37 4.665 Z M 1.158 4.665 C 1.158 4.882 1.334 5.059 1.552 5.059 C 1.769 5.059 1.945 4.882 1.945 4.665 C 1.945 4.448 1.769 4.271 1.552 4.271 C 1.334 4.271 1.158 4.448 1.158 4.665 Z" fill="#FCFCFD" style=""/>
</svg>